# xmcd
#
# Track frame offsets:
#	150
#	8902
#	25108
#	39476
#	54706
#	67009
#	79474
#	93161
#	103182
#	120180
#	135291
#	145598
#	158187
#	170494
#
# Disc length: 2406 seconds
# Revision: 0
# Processed by: cddbd v1.5.2PL0 Copyright (c) Steve Scherf et al.
# Submitted via: dBpowerAMP V12.0
#
DISCID=af09640e
DTITLE=Various Artist - Pick a Peck of Piedmont Pickers
DYEAR=2011
DGENRE=Blues
TTITLE0=Andy Cohen - Charlie Stone
TTITLE1=Lauren Sheehan - Georgia Bound
TTITLE2=Gareth Hedges - Fishin' Blues
TTITLE3=Mike Higgins - Beantown Rag
TTITLE4=Russ Mello - All Gone Now
TTITLE5=Andy Cohen and Jack Radcliffe - Cincinnati Flow Rag
TTITLE6=Gareth Hedges - Good Little Thing
TTITLE7=Lauren Sheehan - That's No Way To Do
TTITLE8=Mike Higgins - Chump Man Blues
TTITLE9=Russ Mello - Rope Stretchin' Blues
TTITLE10=Gareth Hedges - Bell Buckle Rag
TTITLE11=Lauren Sheehan - Spike Driver Blues
TTITLE12=Russ Mello - Vamp of '28
TTITLE13=Andy Cohen - Glory of Love
EXTD=
EXTT0=
EXTT1=
EXTT2=
EXTT3=
EXTT4=
EXTT5=
EXTT6=
EXTT7=
EXTT8=
EXTT9=
EXTT10=
EXTT11=
EXTT12=
EXTT13=
PLAYORDER=
